<svg width="44" height="64" viewBox="0 0 44 64" fill="none" xmlns="http://www.w3.org/2000/svg">
<path d="M32.6667 42.6667C38.5577 42.6667 43.3333 37.8911 43.3333 32C43.3333 26.109 38.5577 21.3334 32.6667 21.3334C26.7756 21.3334 22 26.109 22 32C22 37.8911 26.7756 42.6667 32.6667 42.6667Z" fill="#19BCFE"/>
<path fill-rule="evenodd" clip-rule="evenodd" d="M11.3334 64C14.1624 64 16.8755 62.8761 18.8759 60.8758C20.8763 58.8754 22.0001 56.1623 22.0001 53.3333V42.6666H11.3334C8.50444 42.6666 5.79133 43.7904 3.79094 45.7908C1.79055 47.7912 0.666748 50.5043 0.666748 53.3333C0.666748 56.1623 1.79055 58.8754 3.79094 60.8758C5.79133 62.8761 8.50444 64 11.3334 64Z" fill="#09CF83"/>
<path fill-rule="evenodd" clip-rule="evenodd" d="M11.3334 42.6667H22.0001V21.3334H11.3334C8.50444 21.3334 5.79133 22.4572 3.79094 24.4576C1.79055 26.458 0.666748 29.1711 0.666748 32C0.666748 34.829 1.79055 37.5421 3.79094 39.5425C5.79133 41.5429 8.50444 42.6667 11.3334 42.6667Z" fill="#A259FF"/>
<path fill-rule="evenodd" clip-rule="evenodd" d="M11.3334 21.3333H22.0001V0H11.3334C8.50444 0 5.79133 1.12381 3.79094 3.12419C1.79055 5.12458 0.666748 7.83769 0.666748 10.6667C0.666748 13.4956 1.79055 16.2088 3.79094 18.2091C5.79133 20.2095 8.50444 21.3333 11.3334 21.3333Z" fill="#F24E1E"/>
<path fill-rule="evenodd" clip-rule="evenodd" d="M32.6667 21.3333H22V0H32.6667C35.4956 0 38.2087 1.12381 40.2091 3.12419C42.2095 5.12458 43.3333 7.83769 43.3333 10.6667C43.3333 13.4956 42.2095 16.2088 40.2091 18.2091C38.2087 20.2095 35.4956 21.3333 32.6667 21.3333Z" fill="#FF7262"/>
</svg>
